<?xml version="1.0" standalone="no"?>
<!DOCTYPE svg PUBLIC "-//W3C//DTD SVG 20010904//EN"
 "http://www.w3.org/TR/2001/REC-SVG-20010904/DTD/svg10.dtd">
<svg version="1.0" xmlns="http://www.w3.org/2000/svg"
 width="1024.000000pt" height="1024.000000pt" viewBox="0 0 1024.000000 1024.000000"
 preserveAspectRatio="xMidYMid meet">
<metadata>
Created by potrace 1.14, written by Peter Selinger 2001-2017
</metadata>
<g transform="translate(0.000000,1024.000000) scale(0.100000,-0.100000)"
fill="#000000" stroke="none">
<path d="M0 8322 l0 -1917 49 -42 c68 -59 105 -136 104 -217 -1 -64 -25 -141
-46 -145 -7 -1 -34 -4 -60 -7 l-48 -6 3 -61 3 -61 60 -12 c76 -16 187 -57 186
-69 0 -14 -38 -23 -102 -24 -31 -1 -77 -4 -103 -7 -41 -6 -46 -10 -46 -32 0
-24 2 -24 50 -18 l50 7 -5 -43 c-3 -24 -8 -56 -10 -73 -3 -16 2 -73 9 -125 13
-84 22 -110 83 -227 76 -150 88 -157 149 -104 18 16 41 34 51 40 14 8 15 12 5
19 -10 7 -3 24 33 75 63 91 91 164 110 293 18 123 21 417 6 629 -9 121 -1 319
13 355 5 12 -16 21 -99 44 -58 16 -102 33 -98 37 4 4 53 19 108 34 74 21 106
35 125 55 42 46 92 68 135 61 33 -5 40 -11 50 -41 10 -30 17 -35 46 -38 26 -2
39 -11 56 -37 19 -28 35 -38 92 -55 104 -31 111 -39 118 -142 6 -84 5 -86 -17
-90 -13 -1 -28 -12 -34 -23 -5 -11 -23 -39 -39 -63 -27 -40 -28 -45 -18 -93
13 -62 19 -72 91 -179 110 -164 168 -302 204 -491 23 -119 67 -236 96 -254 6
-4 8 -14 5 -24 -4 -12 8 -26 39 -48 63 -44 79 -73 71 -122 -8 -51 -26 -66
-100 -85 -149 -38 -388 -47 -895 -35 l-24 1 23 18 24 17 -47 -1 c-25 0 -46 -5
-46 -11 0 -5 -6 -3 -13 6 -9 12 -15 13 -23 5 -10 -11 45 -33 166 -66 14 -3 34
-21 45 -38 l20 -31 435 -1 435 0 -59 -30 c-32 -17 -63 -30 -68 -30 -11 0 -175
-69 -278 -117 -41 -20 -79 -36 -85 -38 -13 -3 -54 -20 -110 -45 -47 -22 -97
-42 -105 -45 -3 0 -27 -11 -55 -24 -27 -12 -72 -32 -100 -43 -27 -11 -52 -22
-55 -25 -5 -5 1172 4 1635 12 348 6 1000 7 1000 2 0 -5 -149 -166 -331 -357
-161 -169 -261 -275 -296 -316 -18 -20 -17 -20 115 -18 72 1 393 5 712 8 319
4 688 9 820 11 132 2 443 7 690 10 248 3 621 8 831 11 l381 6 45 -94 c25 -51
46 -96 47 -101 0 -4 22 -49 48 -100 26 -50 46 -95 45 -100 -1 -4 3 -7 9 -7 5
0 7 -4 4 -10 -3 -5 -1 -10 4 -10 6 0 10 -3 9 -7 -1 -5 16 -44 37 -88 22 -44
38 -83 37 -87 -1 -5 2 -8 8 -8 5 0 10 -7 10 -16 0 -9 20 -54 45 -100 24 -46
42 -84 40 -84 -2 0 17 -42 43 -92 25 -51 46 -96 44 -100 -1 -5 3 -8 10 -8 6 0
9 -3 5 -6 -3 -3 14 -44 39 -91 24 -46 44 -90 44 -98 0 -8 5 -15 10 -15 6 0 10
-6 10 -14 0 -7 19 -51 42 -97 23 -46 41 -85 39 -87 -1 -1 6 -16 16 -32 9 -16
15 -31 12 -34 -8 -8 -170 -16 -479 -21 -173 -3 -387 -7 -475 -10 -88 -3 -295
-7 -460 -10 -165 -3 -385 -8 -490 -10 -104 -3 -419 -9 -700 -15 -280 -5 -604
-12 -720 -15 -115 -3 -649 -14 -1185 -25 -536 -10 -1035 -21 -1108 -24 -73 -2
-132 -1 -130 4 2 6 432 464 878 935 42 44 116 123 166 175 79 85 399 422 421
444 7 7 -693 3 -1267 -9 -129 -3 -468 -8 -752 -11 l-518 -6 0 -780 0 -780 58
6 c31 3 253 8 492 12 239 3 452 7 473 9 21 2 37 0 35 -5 -3 -8 -209 -231 -287
-310 -19 -19 -59 -62 -90 -95 -55 -61 -226 -242 -519 -550 l-161 -170 -1 -542
0 -543 3970 0 3970 0 -24 48 c-13 26 -38 79 -56 117 -17 39 -51 111 -75 160
-61 126 -189 396 -282 595 -25 52 -63 133 -86 180 -23 46 -42 87 -43 90 0 3
-17 39 -37 81 -20 42 -37 82 -37 88 0 6 -4 11 -10 11 -5 0 -10 5 -10 11 0 6
-25 63 -56 127 -86 180 -142 297 -274 577 -23 50 -60 126 -81 169 -22 44 -38
80 -37 81 2 2 145 5 318 9 499 10 1173 24 2160 46 503 11 918 20 923 20 4 0 6
250 5 556 l-3 555 -330 175 -330 175 -630 -5 c-346 -4 -720 -8 -830 -11 -110
-3 -420 -7 -690 -10 -269 -3 -673 -8 -896 -11 l-405 -7 -36 74 c-20 41 -45 94
-56 119 -11 25 -56 119 -99 210 -113 235 -132 275 -129 277 1 1 303 5 671 8
369 3 758 8 865 10 107 2 371 5 585 5 262 1 385 4 375 11 -25 16 -497 269
-600 321 l-95 47 115 2 c63 1 196 3 295 6 99 2 221 1 272 -2 l92 -7 11 -33
c10 -31 78 -92 136 -123 29 -15 197 -48 329 -64 161 -19 576 -16 637 4 55 18
155 81 138 86 -6 2 -53 -1 -103 -7 -95 -10 -342 -6 -434 8 -37 6 -53 5 -53 -3
0 -7 -3 -7 -8 -1 -4 6 -45 11 -92 12 -79 1 -195 9 -195 13 0 2 -68 11 -92 12
-13 0 -20 5 -16 11 3 6 1 7 -5 3 -6 -4 -21 -2 -32 4 -15 8 -20 8 -20 -1 0 -7
-8 -5 -20 6 -11 10 -20 14 -20 9 0 -5 -5 -1 -11 9 -5 9 -15 17 -20 17 -6 0 -7
-4 -4 -10 3 -6 -1 -7 -9 -4 -9 3 -16 11 -16 16 0 6 -8 7 -17 4 -10 -4 -14 -4
-10 0 3 4 -8 19 -26 35 -27 24 -29 29 -15 34 9 4 22 4 28 0 5 -3 10 -2 10 4 0
6 7 7 17 4 10 -4 14 -2 10 4 -5 7 5 10 27 9 29 -1 33 1 23 13 -9 11 -5 11 19
-2 20 -11 35 -12 45 -6 12 8 12 9 -1 7 -9 -2 -17 1 -18 6 -2 8 39 17 83 17 18
0 138 -14 220 -27 46 -6 441 -17 435 -12 -3 3 -88 8 -190 12 -277 10 -449 31
-515 64 -16 8 -27 11 -22 7 4 -5 -30 -21 -75 -37 -78 -27 -92 -29 -233 -27
-185 2 -470 32 -460 49 2 4 -6 5 -18 3 -12 -2 -31 3 -42 11 -17 13 -18 18 -7
35 7 12 9 21 5 21 -5 0 -14 4 -22 9 -11 7 -10 13 4 35 10 14 22 26 27 26 6 0
4 -7 -3 -16 -12 -15 -11 -16 8 -10 12 4 24 2 28 -4 3 -5 12 -10 18 -10 7 0 5
5 -5 10 -10 6 -14 18 -11 30 3 11 9 17 14 14 17 -10 167 -33 260 -39 52 -3
119 -8 149 -10 58 -4 261 -8 270 -4 5 2 65 7 120 10 14 1 31 6 38 11 8 7 12 7
12 0 0 -12 59 -22 66 -10 3 5 0 7 -7 6 -7 -2 -15 5 -17 15 -2 9 2 17 8 17 6 0
8 -5 4 -12 -4 -7 -3 -8 4 -4 7 4 12 19 13 34 0 15 3 21 6 15 9 -23 20 -14 15
12 -2 14 -9 25 -14 25 -5 0 -7 -4 -4 -8 3 -5 -5 -20 -17 -35 -22 -27 -23 -28
-157 -30 -74 -1 -196 2 -270 6 -74 5 -169 11 -210 13 -41 2 -95 6 -120 9 -62
8 -180 45 -180 56 0 6 -5 7 -10 4 -11 -7 -40 18 -40 34 0 5 5 13 12 17 7 5 9
2 4 -7 -4 -8 1 -3 12 10 11 13 24 21 31 17 6 -4 11 -2 11 4 0 6 4 8 10 5 5 -3
10 0 10 8 0 10 7 13 20 10 12 -3 20 0 20 6 0 7 4 10 9 7 4 -3 16 3 26 14 10
11 23 20 29 20 6 0 3 -5 -6 -11 -20 -11 -24 -29 -7 -29 5 0 8 4 5 9 -10 15 16
19 104 16 l85 -4 -90 13 c-137 20 -149 29 -90 66 19 12 33 26 30 31 -4 5 0 6
8 3 8 -3 18 0 23 7 4 8 3 10 -4 5 -7 -4 -12 -2 -12 4 0 7 9 14 20 17 11 3 20
9 20 14 0 5 -8 6 -17 3 -15 -5 -16 -4 -3 5 8 6 15 14 16 18 3 40 58 118 76
107 8 -5 5 17 -6 35 -5 8 -5 12 0 9 5 -3 18 6 28 21 19 26 19 26 0 9 -19 -16
-20 -16 -20 2 0 10 4 18 9 17 5 -1 12 4 14 11 3 6 0 12 -6 12 -12 0 -6 37 9
56 7 7 8 19 4 25 -4 8 -3 9 4 5 7 -4 13 -1 13 8 1 9 3 21 4 26 1 6 3 17 4 26
0 9 6 13 14 9 6 -4 5 -1 -3 7 -22 19 -23 38 -2 32 14 -5 13 -3 -3 11 -19 16
-19 16 10 9 28 -6 29 -6 10 9 -18 14 -15 15 40 13 50 -1 60 -4 57 -18 -2 -14
4 -15 40 -11 24 3 53 12 66 19 15 10 22 11 22 3 0 -6 7 -9 15 -5 8 3 15 0 15
-7 0 -7 8 -3 16 8 15 18 16 13 9 -72 -4 -56 -2 -131 6 -190 10 -86 19 -112 65
-204 31 -63 63 -113 78 -122 14 -10 23 -23 21 -30 -3 -7 27 -33 70 -61 67 -43
73 -50 64 -68 -7 -13 -7 -18 -1 -14 6 3 12 -2 14 -11 3 -16 5 -15 16 4 11 19
10 22 -3 17 -11 -5 -13 -2 -9 10 3 9 10 14 14 11 4 -3 7 9 6 25 -1 20 3 30 12
30 7 0 10 -4 7 -10 -3 -5 -1 -10 4 -10 6 0 11 11 11 24 0 13 7 26 15 30 8 3
15 10 15 16 0 6 -4 9 -8 6 -5 -3 -9 1 -9 8 0 8 7 12 15 8 10 -3 13 -1 8 6 -4
7 -2 12 4 12 8 0 7 6 -1 21 -10 20 -9 21 15 17 14 -3 26 -1 26 3 0 5 -6 9 -13
9 -8 0 -13 15 -13 40 -1 22 3 40 8 40 5 0 6 6 2 13 -5 8 -2 7 9 -2 15 -12 17
-12 11 3 -7 18 12 46 30 46 6 0 3 -5 -6 -11 -26 -15 -23 -32 3 -19 16 9 19 18
15 38 -3 15 -3 21 0 15 8 -18 44 3 44 24 0 29 28 -7 33 -42 3 -26 8 -30 33
-30 16 0 34 3 39 8 6 4 20 16 32 26 13 10 35 17 50 15 15 -1 37 6 51 17 39 30
55 25 45 -14 -4 -17 -8 -84 -7 -147 0 -112 1 -118 44 -227 44 -112 45 -113 77
-113 30 0 33 -3 33 -29 0 -35 27 -70 60 -77 63 -14 170 -33 225 -38 265 -27
535 -35 535 -16 0 6 -15 10 -32 11 -18 1 -40 2 -48 3 -8 2 -40 3 -72 4 -49 2
-56 4 -51 20 4 16 -2 19 -39 20 -24 0 -37 -2 -30 -5 10 -4 10 -8 1 -19 -14
-17 -30 -9 -23 11 4 9 -1 13 -15 12 -15 -1 -17 -4 -9 -14 9 -11 1 -13 -41 -12
-29 1 -47 5 -40 9 16 10 1 33 -17 26 -8 -3 -14 0 -15 7 0 7 -5 1 -10 -13 -10
-24 -11 -24 -25 -6 -8 11 -22 21 -32 23 -9 1 -37 5 -62 9 -25 3 -53 10 -62 15
-10 6 -18 6 -18 2 0 -4 -5 -1 -10 7 -6 9 -10 11 -10 3 0 -7 -7 -10 -15 -7 -8
3 -14 9 -13 12 2 18 -3 23 -15 14 -9 -8 -12 -4 -14 15 0 14 -7 29 -15 34 -10
7 -9 9 5 9 9 0 17 -6 17 -12 0 -9 3 -9 9 1 5 8 6 24 1 36 -8 21 -6 22 35 18
23 -3 45 0 49 5 3 6 23 6 48 2 24 -4 74 -8 112 -9 38 -1 72 -3 75 -5 3 -2 90
-7 194 -11 136 -6 187 -4 187 4 0 7 -40 11 -127 12 -71 0 -144 2 -163 4 -19 2
-71 6 -115 10 -160 12 -353 51 -252 50 32 -1 47 9 47 32 0 7 -7 10 -15 7 -8
-4 -15 -2 -15 4 0 6 12 9 26 7 22 -2 25 1 21 22 -4 20 -1 23 16 17 13 -4 17
-2 13 5 -4 6 0 11 11 12 10 0 13 3 7 5 -7 3 -9 15 -6 27 5 20 4 21 -14 7 -18
-14 -18 -14 -5 2 7 10 17 15 22 12 5 -3 9 0 9 5 0 6 -6 11 -12 11 -7 1 -2 7
12 15 14 8 21 15 15 15 -5 1 4 8 20 15 17 8 24 14 16 15 -7 0 -11 6 -7 15 3 8
1 15 -4 15 -5 0 -12 -9 -15 -21 -5 -15 -10 -18 -17 -11 -8 8 -6 16 5 26 17 17
11 60 -7 49 -6 -3 -7 -2 -3 2 15 17 35 13 30 -5 -3 -10 0 -21 7 -25 15 -10 6
50 -11 71 -7 8 -8 14 -3 13 29 -5 42 2 37 21 -3 11 0 20 6 20 6 0 11 5 11 11
0 5 -3 8 -7 6 -5 -3 -14 1 -21 9 -11 12 -10 14 5 11 10 -1 24 -6 31 -11 7 -4
16 -5 19 -2 4 3 2 6 -3 6 -5 0 -9 13 -9 29 0 16 3 27 6 25 4 -2 12 3 19 11 10
13 9 15 -9 15 -11 0 -21 5 -21 12 0 6 3 8 7 4 4 -3 13 6 20 21 7 16 11 20 9
11 -3 -10 -1 -20 4 -23 6 -4 10 3 10 14 0 14 5 19 20 16 11 -2 19 -1 19 3 -1
4 -1 29 0 56 l1 48 18 -22 c18 -23 43 -21 41 3 0 9 -2 9 -6 0 -2 -7 -9 -13
-15 -13 -6 0 -7 7 -4 16 4 10 -1 22 -11 29 -14 10 -15 16 -5 27 6 8 9 18 5 21
-3 4 -1 7 6 7 7 0 10 4 6 9 -3 5 0 13 6 17 8 4 9 3 5 -4 -4 -7 -3 -12 3 -12 5
0 12 6 14 13 4 9 6 9 6 -1 1 -7 -6 -15 -14 -18 -8 -4 -15 -12 -15 -19 0 -7 -6
-16 -12 -18 -8 -4 -7 -6 3 -6 9 -1 20 6 23 15 6 15 9 15 32 -1 15 -9 23 -12
20 -6 -4 6 3 15 16 20 13 6 20 11 16 12 -23 5 -34 4 -45 -4 -9 -7 -13 -5 -13
7 0 10 9 16 23 17 20 0 19 2 -6 11 -26 9 -27 11 -10 24 10 7 28 14 41 14 16 0
22 5 20 18 -2 9 -7 20 -13 24 -6 5 -5 8 3 8 7 0 11 4 7 9 -3 5 -1 12 5 16 5 3
10 14 9 23 0 15 -1 15 -7 1 -6 -14 -9 -13 -27 5 -11 12 -16 18 -11 14 14 -11
28 -10 21 1 -3 5 0 13 6 17 8 5 9 3 4 -6 -6 -9 -4 -11 5 -5 10 6 9 12 -6 24
-10 9 -20 25 -21 35 -1 16 3 14 23 -10 19 -22 22 -24 14 -6 -6 12 -8 22 -4 22
3 0 1 7 -6 15 -7 8 -10 21 -6 30 3 9 -3 19 -15 26 -16 8 -19 17 -14 40 5 22 3
29 -9 29 -9 0 -16 6 -16 14 0 8 -6 14 -12 13 -50 -2 -59 3 -53 26 3 12 3 18
-2 12 -4 -5 -14 -11 -21 -13 -10 -2 -10 2 -2 18 6 11 18 20 27 20 9 0 14 2 11
5 -8 9 63 76 73 69 5 -3 9 -1 9 5 0 5 14 12 30 16 21 5 30 13 30 26 0 13 7 19
24 19 14 0 28 5 31 10 5 8 11 8 20 0 9 -8 15 -8 20 0 10 16 -4 30 -23 24 -13
-5 -14 -4 -3 4 8 6 10 15 6 23 -5 8 -5 11 0 7 4 -4 14 -3 20 2 7 6 29 11 49
12 l36 1 0 1739 0 1738 -5120 0 -5120 0 0 -1918z m1490 1898 c0 -5 -4 -10 -10
-10 -5 0 -10 5 -10 10 0 6 5 10 10 10 6 0 10 -4 10 -10z m3600 -250 c0 -5 -4
-10 -10 -10 -5 0 -10 5 -10 10 0 6 5 10 10 10 6 0 10 -4 10 -10z m2570 -40 c0
-5 -4 -10 -10 -10 -5 0 -10 5 -10 10 0 6 5 10 10 10 6 0 10 -4 10 -10z m-1570
-30 c0 -5 -4 -10 -10 -10 -5 0 -10 5 -10 10 0 6 5 10 10 10 6 0 10 -4 10 -10z
m-3630 -55 c0 -8 -7 -15 -15 -15 -8 0 -15 7 -15 15 0 8 7 15 15 15 8 0 15 -7
15 -15z m6910 -95 c0 -5 -7 -10 -15 -10 -8 0 -15 5 -15 10 0 6 7 10 15 10 8 0
15 -4 15 -10z m-5990 -40 c0 -5 -4 -10 -10 -10 -5 0 -10 5 -10 10 0 6 5 10 10
10 6 0 10 -4 10 -10z m2220 -60 c0 -5 -4 -10 -10 -10 -5 0 -10 5 -10 10 0 6 5
10 10 10 6 0 10 -4 10 -10z m-2380 -210 c0 -5 -7 -10 -15 -10 -8 0 -15 5 -15
10 0 6 7 10 15 10 8 0 15 -4 15 -10z m4560 -10 c0 -5 -4 -10 -10 -10 -5 0 -10
5 -10 10 0 6 5 10 10 10 6 0 10 -4 10 -10z m1090 -10 c0 -5 -4 -10 -10 -10 -5
0 -10 5 -10 10 0 6 5 10 10 10 6 0 10 -4 10 -10z m-4273 -196 c-3 -3 -12 -4
-19 -1 -8 3 -5 6 6 6 11 1 17 -2 13 -5z m-3927 -94 c0 -5 -4 -10 -10 -10 -5 0
-10 5 -10 10 0 6 5 10 10 10 6 0 10 -4 10 -10z m2920 0 c0 -5 -4 -10 -10 -10
-5 0 -10 5 -10 10 0 6 5 10 10 10 6 0 10 -4 10 -10z m6090 -50 c0 -5 -4 -10
-10 -10 -5 0 -10 5 -10 10 0 6 5 10 10 10 6 0 10 -4 10 -10z m-2740 -70 c0 -5
-4 -10 -10 -10 -5 0 -10 5 -10 10 0 6 5 10 10 10 6 0 10 -4 10 -10z m-5780
-40 c0 -5 -4 -10 -10 -10 -5 0 -10 5 -10 10 0 6 5 10 10 10 6 0 10 -4 10 -10z
m8920 -85 c0 -8 -4 -15 -10 -15 -5 0 -10 7 -10 15 0 8 5 15 10 15 6 0 10 -7
10 -15z m-930 -5 c0 -5 -4 -10 -10 -10 -5 0 -10 5 -10 10 0 6 5 10 10 10 6 0
10 -4 10 -10z m-2950 -65 c0 -8 -4 -15 -10 -15 -5 0 -10 7 -10 15 0 8 5 15 10
15 6 0 10 -7 10 -15z m-2350 -185 c0 -5 -4 -10 -10 -10 -5 0 -10 5 -10 10 0 6
5 10 10 10 6 0 10 -4 10 -10z m-2610 -95 c0 -8 -7 -15 -15 -15 -8 0 -15 7 -15
15 0 8 7 15 15 15 8 0 15 -7 15 -15z m4270 -185 c0 -5 -4 -10 -10 -10 -5 0
-10 5 -10 10 0 6 5 10 10 10 6 0 10 -4 10 -10z m-4790 -140 c0 -5 -4 -10 -10
-10 -5 0 -10 5 -10 10 0 6 5 10 10 10 6 0 10 -4 10 -10z m8510 -10 c0 -5 -4
-10 -10 -10 -5 0 -10 5 -10 10 0 6 5 10 10 10 6 0 10 -4 10 -10z m-4200 -95
c0 -8 -7 -15 -15 -15 -8 0 -15 7 -15 15 0 8 7 15 15 15 8 0 15 -7 15 -15z
m-3550 -45 c0 -5 -4 -10 -10 -10 -5 0 -10 5 -10 10 0 6 5 10 10 10 6 0 10 -4
10 -10z m4330 -220 c0 -5 -4 -10 -10 -10 -5 0 -10 5 -10 10 0 6 5 10 10 10 6
0 10 -4 10 -10z m-1165 -181 c4 -10 15 -19 26 -19 17 0 18 -3 9 -20 -12 -23
-7 -25 21 -10 18 10 19 7 19 -60 0 -38 -2 -70 -5 -70 -3 0 -18 8 -33 18 l-26
17 17 -25 c22 -31 21 -40 0 -40 -13 -1 -11 -5 8 -15 28 -15 44 -41 30 -49 -4
-3 -40 0 -81 5 -41 6 -84 9 -97 6 -19 -3 -21 -2 -12 15 6 11 20 23 32 28 18 7
19 9 4 9 -17 1 -17 3 -1 33 l17 32 -26 -16 c-13 -10 -27 -14 -31 -11 -3 4 -6
35 -6 71 l0 64 27 -17 c28 -19 27 -21 7 30 -4 10 0 15 13 15 10 0 26 9 36 20
19 22 43 17 52 -11z m-3645 -9 c0 -5 -4 -10 -10 -10 -5 0 -10 5 -10 10 0 6 5
10 10 10 6 0 10 -4 10 -10z m6620 -50 c0 -5 -4 -10 -10 -10 -5 0 -10 5 -10 10
0 6 5 10 10 10 6 0 10 -4 10 -10z m-2855 -260 c99 -25 161 -55 182 -86 15 -23
13 -33 -36 -181 l-53 -157 24 -18 23 -18 -35 8 c-19 4 -146 7 -282 7 -199 0
-242 2 -225 12 12 7 18 13 12 13 -5 0 4 12 20 26 17 15 24 23 16 18 -11 -5
-13 -3 -8 9 4 12 1 17 -10 17 -13 0 -14 3 -6 11 6 6 9 19 6 28 -4 13 -3 14 5
1 6 -8 9 -17 7 -20 -2 -4 2 -7 9 -7 11 0 12 5 3 24 -7 16 -7 27 0 34 6 6 9 2
9 -13 -1 -15 6 -24 19 -26 11 -3 25 -12 31 -21 7 -9 16 -13 20 -8 4 4 2 7 -6
7 -10 0 -10 3 0 15 11 13 10 14 -5 9 -12 -5 -16 -4 -11 4 4 7 -2 9 -19 6 -23
-4 -24 -3 -13 15 10 17 15 18 28 7 22 -19 64 -40 56 -28 -3 6 -2 13 4 17 5 3
10 15 10 26 0 11 5 17 10 14 6 -3 10 0 11 7 0 9 2 10 5 1 6 -13 34 -6 34 8 0
13 40 51 56 53 8 1 15 6 15 11 0 8 -7 11 -61 19 -14 2 -45 11 -70 19 -67 23
-84 24 -96 8 -9 -11 -15 -11 -30 -2 -17 11 -17 11 6 6 21 -5 22 -4 7 5 -9 6
-23 8 -29 4 -17 -10 -108 -11 -108 -1 0 5 -4 6 -10 2 -5 -3 -5 8 2 26 29 84
302 134 483 89z m1766 -51 c20 -20 22 -49 8 -98 -3 -9 8 -17 30 -23 43 -12 92
-49 122 -93 21 -30 25 -32 43 -19 26 18 46 18 46 -1 0 -20 9 -19 32 2 18 16
19 16 8 -12 -6 -17 -36 -77 -67 -134 -48 -89 -54 -106 -41 -115 11 -8 -53 -11
-238 -11 -192 0 -250 3 -243 12 7 8 5 22 -6 42 -8 17 -12 31 -8 31 5 0 2 4 -5
8 -7 5 -14 19 -17 31 -2 13 -18 47 -35 77 -33 59 -37 72 -16 55 10 -9 15 -8
20 4 6 17 36 21 36 5 0 -5 6 -10 13 -10 16 0 59 44 52 53 -3 4 -2 5 1 2 4 -2
24 11 46 30 21 19 44 35 51 35 6 0 24 7 39 14 16 8 49 18 75 22 43 6 45 8 23
16 -14 5 -41 10 -60 11 -42 2 -49 23 -20 60 27 34 80 37 111 6z m-4111 -134
c0 -8 -7 -15 -15 -15 -8 0 -15 7 -15 15 0 8 7 15 15 15 8 0 15 -7 15 -15z
m338 -77 c7 -7 12 -23 12 -36 0 -22 -3 -23 -27 -17 -16 5 -36 8 -45 9 -39 1
-12 56 27 56 12 0 26 -5 33 -12z m5572 -23 c14 -17 9 -51 -8 -47 -21 4 -57 10
-64 11 -12 1 -9 26 4 39 16 16 53 15 68 -3z m-7200 -55 c0 -5 -4 -10 -10 -10
-5 0 -10 5 -10 10 0 6 5 10 10 10 6 0 10 -4 10 -10z m1683 -57 c107 -78 150
-128 182 -218 35 -95 31 -146 -19 -251 -34 -72 -36 -81 -27 -123 6 -25 13 -57
15 -71 3 -14 19 -34 36 -45 63 -42 47 -45 -225 -45 -236 0 -294 -6 -234 -25
23 -7 395 2 442 11 20 4 27 2 27 -10 0 -10 17 -23 41 -32 22 -9 36 -21 32 -25
-5 -5 -134 -10 -287 -11 l-278 -3 -20 -53 -20 -54 -47 7 c-25 3 -68 17 -96 30
-27 13 -70 26 -95 30 -25 3 -53 7 -62 9 -10 1 -21 5 -24 9 -4 4 -22 7 -41 7
-18 0 -33 4 -33 9 0 5 -10 7 -22 4 -19 -4 -20 -3 -8 6 27 19 -4 11 -39 -10
-27 -16 -36 -18 -42 -7 -7 10 -9 10 -9 -2 -1 -9 -6 -6 -16 10 l-15 25 5 -25
c5 -23 4 -24 -9 -7 -7 11 -11 26 -8 35 4 15 3 15 -6 2 -6 -8 -8 -24 -5 -35 5
-19 4 -19 -6 -2 -7 10 -12 48 -11 83 1 114 62 210 168 265 40 20 63 24 133 24
71 0 94 -4 141 -26 71 -34 131 -87 154 -139 15 -32 32 -51 36 -37 0 1 6 35 12
75 l12 74 80 2 c188 7 168 2 191 46 21 37 21 40 5 54 -10 9 -25 16 -33 16 -23
0 -92 30 -100 44 -4 6 -23 13 -44 14 -20 2 -46 8 -57 13 -14 8 -18 8 -12 -1 8
-13 -61 -10 -83 4 -6 4 -12 3 -12 -2 0 -5 -6 -9 -13 -9 -38 0 -2 171 52 251
24 36 184 165 205 166 5 0 45 -26 89 -57z m5573 -24 c93 -66 134 -119 159
-203 26 -87 20 -134 -30 -234 -44 -88 -45 -91 -36 -153 7 -52 14 -67 40 -91
55 -49 48 -51 -156 -44 -104 4 -222 7 -263 7 -98 0 -111 8 -66 43 20 15 35 32
33 39 -1 9 33 14 123 17 l125 6 -106 2 c-86 2 -109 5 -120 19 -12 15 -12 16 6
9 16 -6 18 -5 8 5 -37 37 5 55 137 58 46 1 107 7 135 13 27 7 53 11 57 10 12
-3 50 58 45 72 -3 7 -17 14 -31 15 -49 3 -56 4 -56 14 0 5 -7 7 -14 4 -10 -4
-13 -1 -10 8 9 22 -69 51 -121 45 -69 -8 -145 6 -172 32 -13 12 -23 17 -23 12
-1 -10 -29 37 -30 49 0 5 4 5 10 2 5 -3 9 8 8 27 -1 43 31 104 79 149 42 41
163 129 175 129 4 0 47 -28 94 -61z m-5286 -44 c0 -8 -7 -15 -15 -15 -8 0 -15
7 -15 15 0 8 7 15 15 15 8 0 15 -7 15 -15z m1370 -27 c0 8 10 10 29 7 17 -3
33 -1 36 5 4 6 71 10 170 10 l163 0 -8 -34 c-9 -42 7 -71 45 -80 23 -6 25 -10
20 -39 l-7 -33 61 -17 c79 -22 81 -40 4 -30 -32 4 -221 7 -420 7 -198 1 -359
4 -357 7 2 4 26 12 54 19 28 7 53 18 58 25 8 15 72 23 189 26 45 1 80 5 77 10
-2 4 -65 7 -139 6 -74 -1 -135 1 -135 5 0 4 16 14 35 22 21 9 35 22 35 33 1
28 35 69 45 53 6 -9 4 -11 -5 -5 -9 5 -11 4 -6 -3 13 -22 34 -14 29 11 -4 21
-4 22 11 3 9 -11 16 -14 16 -8z m2240 -103 c0 -26 39 -75 60 -75 5 0 10 -13
10 -29 0 -24 6 -31 45 -45 52 -20 64 -52 15 -41 -16 4 -196 7 -399 8 -203 1
-367 5 -364 9 2 5 21 15 41 24 20 8 39 19 43 25 3 6 27 11 53 11 63 0 58 16
-6 20 l-53 3 32 17 c19 11 37 31 44 52 15 41 -1 38 307 44 l172 4 0 -27z
m3232 -142 c-6 -2 -9 -10 -6 -15 4 -7 2 -8 -4 -4 -7 4 -12 1 -12 -6 0 -10 -3
-9 -9 1 -8 12 -12 12 -25 2 -9 -8 -16 -10 -16 -5 0 5 -6 1 -13 -8 -9 -11 -18
-14 -27 -8 -20 12 -12 17 51 34 53 14 86 19 61 9z m-8412 -58 c0 -8 -7 -15
-15 -15 -8 0 -15 7 -15 15 0 8 7 15 15 15 8 0 15 -7 15 -15z m3390 10 c0 -3
-15 -34 -32 -68 l-33 -62 0 -215 c0 -118 4 -255 8 -303 8 -80 11 -89 33 -99
43 -20 19 -33 -77 -41 -120 -10 -619 -1 -632 12 -6 6 6 17 34 31 59 30 146 60
154 52 3 -3 8 4 12 16 4 17 9 20 23 12 10 -6 75 -10 143 -10 l124 0 46 35 c65
49 74 70 42 90 -14 8 -36 22 -49 30 -13 7 -48 17 -77 21 -30 4 -70 14 -89 22
-49 21 -74 25 -120 19 -14 -2 -31 1 -37 6 -9 6 -15 4 -19 -7 -3 -9 -10 -13
-15 -10 -5 3 -7 9 -4 14 3 5 1 12 -5 15 -6 4 -9 3 -8 -2 4 -10 -5 -13 -32 -13
-14 0 -18 4 -13 17 7 17 5 16 -22 -1 -17 -10 -24 -13 -17 -5 15 16 16 33 0 23
-21 -13 -2 108 25 162 30 59 92 119 152 145 35 16 65 19 171 17 142 -1 149 1
209 61 30 30 48 40 73 41 17 0 32 -2 32 -5z m4080 -15 c0 -5 -7 -10 -15 -10
-8 0 -15 5 -15 10 0 6 7 10 15 10 8 0 15 -4 15 -10z m-1110 -50 c0 -5 -4 -10
-10 -10 -5 0 -10 5 -10 10 0 6 5 10 10 10 6 0 10 -4 10 -10z m-1260 -35 c0 -8
4 -15 9 -15 5 0 11 7 15 15 11 29 28 16 21 -16 l-7 -31 29 15 c52 27 139 40
194 28 104 -23 175 -78 217 -170 21 -46 24 -63 20 -130 -3 -43 -13 -92 -23
-112 l-17 -35 -28 26 c-15 14 -38 26 -51 27 -22 2 -86 14 -99 18 -3 1 -20 6
-37 10 -18 4 -33 11 -33 16 0 4 -17 7 -37 5 -21 -2 -46 1 -55 6 -14 6 -16 4
-13 -13 4 -20 3 -20 -14 -5 -21 19 -31 21 -27 4 1 -7 1 -10 -1 -5 -3 4 -9 5
-14 2 -5 -4 -6 2 -3 12 5 16 4 16 -10 -1 -15 -19 -22 -12 -17 17 1 9 -22 4
-30 -7 -4 -5 -14 4 -22 20 -8 16 -19 29 -24 29 -4 0 -7 3 -5 8 1 4 -2 7 -7 7
-6 0 -8 10 -6 22 3 16 2 19 -6 11 -14 -14 -7 -127 11 -168 7 -16 13 -33 12
-37 -3 -12 95 -106 117 -113 31 -10 25 -26 -6 -20 -26 5 -26 5 -5 -4 12 -6 28
-8 35 -6 28 10 77 14 172 15 106 1 151 -9 256 -56 50 -23 57 -29 47 -42 -11
-12 -59 -14 -343 -9 -181 3 -343 8 -360 12 -48 11 -9 -12 53 -31 29 -8 57 -24
62 -34 6 -11 13 -54 17 -97 3 -43 11 -81 17 -85 8 -5 7 -8 -1 -8 -7 0 -13 -9
-13 -20 0 -11 5 -20 10 -20 6 0 10 7 10 15 0 8 5 15 12 15 7 0 5 7 -5 18 -17
19 -8 50 12 38 6 -4 11 0 11 8 0 9 7 16 16 16 8 0 13 4 10 9 -7 11 22 23 35
15 5 -3 7 -9 5 -13 -3 -4 1 -8 8 -8 7 0 13 6 13 13 0 7 -4 11 -9 8 -4 -3 -8 0
-8 6 0 6 -11 16 -25 22 -14 6 -25 15 -25 19 0 4 12 1 28 -7 33 -17 49 -18 55
-1 3 6 4 -5 3 -26 -2 -30 1 -37 13 -34 9 2 15 9 13 16 -1 7 2 10 8 6 6 -3 8
-10 5 -15 -3 -4 4 -6 16 -3 11 3 23 12 26 19 3 8 9 11 14 8 5 -3 9 0 9 6 0 6
4 9 9 6 5 -3 14 1 21 9 9 11 16 12 26 4 15 -12 67 11 83 38 9 16 10 15 11 -5
0 -13 4 -21 8 -18 4 2 4 -24 -2 -60 -15 -102 3 -220 53 -350 l42 -109 236
-120 235 -120 -92 -3 c-78 -2 -90 -5 -80 -17 9 -11 10 -64 1 -102 -6 -25 -242
-50 -431 -46 -200 4 -380 14 -510 27 -55 6 -62 7 -112 19 -16 4 -39 9 -53 12
-16 4 -23 10 -19 17 5 8 2 9 -9 5 -10 -3 -17 -2 -17 4 0 6 -5 7 -11 4 -12 -8
-59 33 -59 52 0 10 -57 13 -295 13 -229 0 -295 -3 -295 -12 0 -17 102 -231
115 -240 5 -4 7 -8 2 -8 -4 0 7 -27 24 -61 16 -34 29 -63 27 -64 -6 -6 -573
-14 -1453 -21 -478 -3 -927 -7 -997 -8 -71 -2 -128 -1 -128 2 0 4 62 69 215
227 79 81 130 137 139 153 6 9 -63 12 -328 12 -332 0 -336 0 -336 -20 0 -70
-55 -100 -230 -125 -145 -21 -525 -36 -608 -24 -23 3 -42 2 -42 -2 0 -4 -10
-6 -23 -3 -12 2 -53 6 -91 9 -37 3 -72 8 -76 10 -5 3 -11 1 -15 -5 -4 -7 -12
-7 -25 0 -24 13 -39 13 -20 0 11 -8 8 -9 -12 -4 -15 3 -39 7 -52 8 -13 0 -22
5 -19 10 3 4 -5 5 -17 1 -12 -4 -25 -3 -29 1 -3 5 -17 15 -30 22 -19 11 -22
11 -16 0 6 -10 5 -10 -4 -2 -16 15 -17 72 -3 86 20 20 13 28 -25 29 -21 0 -31
3 -23 6 8 4 44 20 80 36 36 17 67 31 70 32 3 0 20 9 37 18 18 10 34 17 35 16
7 -5 94 39 104 52 15 19 120 286 129 327 11 52 21 221 13 216 -5 -3 -8 0 -8 5
0 6 6 11 13 11 9 0 9 2 -1 9 -16 10 5 21 50 27 27 4 34 -7 29 -38 -2 -17 18
-7 24 12 3 11 10 20 15 20 5 0 7 -8 4 -17 -4 -14 -2 -13 7 2 8 11 14 24 14 29
0 8 21 16 53 18 6 1 12 10 12 20 0 11 7 18 19 18 12 0 18 -7 17 -17 -2 -28 38
-27 71 1 30 25 133 48 133 30 0 -5 -4 -36 -9 -69 -5 -33 -6 -87 -2 -120 l7
-60 47 93 c34 66 49 109 54 152 4 42 10 60 22 64 9 3 -6 3 -34 0 -49 -4 -472
-8 -632 -5 -64 1 -83 4 -83 15 0 16 121 69 185 81 22 5 47 10 55 11 8 2 85 4
170 5 149 2 158 1 244 -29 l88 -30 -4 113 -4 113 25 -4 c35 -6 111 -5 138 0
13 3 30 -2 38 -11 13 -12 18 -13 31 -2 8 7 35 15 59 19 39 6 46 4 51 -12 6
-19 6 -19 20 -1 12 16 13 6 14 -78 0 -52 9 -142 19 -200 17 -90 27 -118 76
-205 37 -65 66 -106 82 -113 15 -7 23 -17 20 -25 -4 -10 18 -28 66 -57 90 -52
117 -77 117 -105 0 -36 -31 -62 -89 -73 -70 -15 -374 -32 -516 -30 -60 0 -116
1 -122 0 -16 -1 -17 -27 -3 -36 12 -7 271 -7 355 0 28 2 66 9 85 15 23 7 36 7
38 0 5 -13 29 -13 34 1 4 13 78 30 78 18 0 -12 37 -11 45 1 4 6 12 7 18 3 7
-5 136 -10 288 -13 l277 -5 -109 -115 c-60 -63 -109 -118 -109 -122 0 -5 81
-8 179 -8 142 0 180 3 184 14 7 16 175 88 189 80 5 -3 4 3 -4 15 -7 12 -36 29
-66 38 -63 20 -75 46 -46 102 29 54 59 86 129 136 54 39 65 51 65 75 0 21 11
39 39 65 32 30 42 49 61 121 21 78 24 83 40 69 25 -23 36 -18 14 7 -16 18 -17
21 -2 15 13 -4 16 -1 13 15 -3 11 0 28 5 37 7 12 8 8 6 -15 -2 -17 -1 -35 2
-41 9 -11 53 -12 45 0 -3 5 -11 6 -18 3 -8 -3 -12 4 -11 19 1 22 2 23 28 7 14
-8 24 -21 21 -29 -7 -19 24 -16 35 3 6 11 11 13 16 5 5 -7 14 -6 32 5 13 9 24
13 24 10 0 -4 17 9 38 28 41 40 85 48 97 19 6 -16 8 -16 25 5 10 12 48 33 83
46 l64 23 43 -156 c40 -145 46 -159 82 -191 26 -25 38 -44 38 -63 0 -21 10
-34 47 -60 78 -53 127 -103 152 -153 22 -43 23 -50 10 -73 -20 -36 -53 -49
-155 -64 l-88 -12 72 -29 c40 -15 76 -35 81 -44 8 -15 33 -17 226 -15 120 1
219 4 221 6 3 2 -20 56 -49 119 l-55 115 82 7 c44 3 131 6 192 6 l110 0 27
-41 c15 -22 27 -44 27 -48 0 -4 6 -8 13 -9 6 0 30 -3 52 -6 224 -32 250 -35
333 -35 39 -1 61 -5 57 -11 -4 -6 1 -7 11 -3 10 3 15 2 12 -3 -4 -5 10 -10 30
-11 l37 -2 -40 14 c-22 8 -41 15 -42 15 -2 0 -3 7 -3 16 0 11 5 14 16 10 10
-4 14 -1 12 6 -7 19 34 37 51 24 11 -8 13 -8 7 2 -4 7 -2 12 5 12 7 0 10 3 7
6 -7 6 -36 10 -126 18 -35 3 -67 8 -72 11 -6 4 -10 2 -10 -4 0 -7 -8 -7 -26
-1 -32 12 -37 12 -29 1 3 -6 -4 -8 -17 -5 -13 3 -27 6 -33 7 -5 2 -14 5 -20 8
-5 3 -29 5 -53 4 -23 -1 -45 2 -48 7 -3 4 -10 6 -15 2 -5 -3 -21 2 -34 10 -14
9 -25 14 -25 10 0 -4 -7 -1 -15 6 -13 11 -14 10 -9 -6 7 -19 6 -19 -8 0 -8 10
-20 16 -26 12 -8 -5 -10 -1 -5 10 4 12 3 15 -5 10 -8 -5 -12 1 -12 15 0 18 -2
19 -15 9 -21 -17 -19 -5 7 46 14 29 44 60 87 93 36 27 76 60 89 73 20 22 27
24 70 17 121 -21 541 -22 485 -2 -10 3 -10 10 -2 26 9 20 8 20 -9 -2 l-19 -23
-184 6 c-189 7 -303 20 -329 37 -13 8 -12 12 5 24 35 25 75 68 71 74 -3 4 2
33 10 66 15 60 19 76 30 128 3 17 10 25 17 21 9 -5 9 -4 1 5 -13 14 0 104 16
109 6 2 10 8 10 13 0 6 -4 8 -8 5 -5 -3 -6 8 -4 25 2 16 7 29 11 29 4 0 7 12
6 28 0 18 5 26 14 24 12 -3 12 0 2 12 -7 8 -10 20 -6 26 3 5 1 10 -4 10 -6 0
-11 7 -11 15 0 8 5 15 11 15 5 0 7 -4 4 -10 -3 -5 -2 -10 3 -10 6 0 9 11 8 24
0 13 -4 22 -8 20 -4 -3 -7 16 -6 42 0 29 4 41 9 33 6 -10 9 -6 9 13 0 15 -4
29 -10 33 -5 3 -7 12 -3 21 3 9 9 11 17 5 8 -7 11 1 11 25 1 27 -3 34 -20 35
-17 0 -17 2 5 10 20 8 22 12 10 19 -8 5 -10 10 -5 10 6 0 3 5 -5 10 -11 7 -11
10 -2 10 7 0 10 4 7 10 -3 5 0 7 8 4 8 -3 17 2 20 10 4 10 20 15 56 14 27 0
58 3 69 6 12 4 24 2 28 -5 5 -8 3 -9 -6 -4 -8 5 -11 4 -7 -2 8 -12 101 3 137
23 32 17 40 17 40 -1z m2562 -22 c65 -20 140 -89 168 -154 26 -62 25 -159 -4
-224 -16 -37 -19 -38 -26 -19 -6 16 -20 23 -52 28 -69 9 -100 19 -126 40 -20
15 -65 13 -80 -4 -8 -8 -11 -9 -7 -2 3 6 2 12 -4 12 -5 0 -16 3 -25 6 -11 4
-16 1 -16 -10 0 -9 -8 -16 -20 -16 -11 0 -20 5 -20 11 0 5 -4 7 -10 4 -5 -3
-10 -1 -10 6 0 7 -8 5 -22 -7 -12 -10 -18 -14 -15 -7 11 17 -11 27 -29 12 -12
-10 -13 -9 -7 6 5 14 3 17 -9 12 -12 -4 -15 0 -11 16 3 15 2 18 -5 9 -7 -10
-11 -10 -22 3 -10 12 -10 18 1 33 10 13 8 12 -10 -3 l-24 -20 12 23 c10 18 9
22 -3 22 -10 0 -12 7 -8 22 4 15 2 19 -7 13 -10 -6 -11 -2 -6 15 5 16 4 20 -5
15 -16 -10 17 43 49 78 59 65 180 111 266 100 22 -3 61 -11 87 -20z m-8032
-223 c0 -5 -4 -10 -10 -10 -5 0 -10 5 -10 10 0 6 5 10 10 10 6 0 10 -4 10 -10z
m4270 -45 c0 -8 -4 -15 -10 -15 -5 0 -10 7 -10 15 0 8 5 15 10 15 6 0 10 -7
10 -15z m3136 -30 c76 -31 31 -36 -289 -29 -172 3 -316 10 -321 15 -6 5 3 13
22 20 18 6 32 15 32 19 0 5 113 9 252 9 138 1 254 4 257 7 3 3 7 -1 9 -10 2
-9 19 -23 38 -31z m1449 6 c3 -6 -4 -9 -15 -8 -11 1 -20 5 -20 9 0 11 28 10
35 -1z m-4255 -101 c0 -5 -4 -10 -10 -10 -5 0 -10 5 -10 10 0 6 5 10 10 10 6
0 10 -4 10 -10z m4105 -90 c-3 -5 -12 -10 -18 -10 -7 0 -6 4 3 10 19 12 23 12
15 0z m-1740 -29 c3 -5 2 -12 -3 -15 -5 -3 -9 1 -9 9 0 17 3 19 12 6z m1742
-23 c-3 -7 -5 -2 -5 12 0 14 2 19 5 13 2 -7 2 -19 0 -25z m-22 2 c3 -6 -1 -7
-9 -4 -18 7 -21 14 -7 14 6 0 13 -4 16 -10z m-931 -25 c-6 -16 4 -19 30 -9 9
3 14 9 12 13 -3 4 47 8 110 10 90 2 129 -2 188 -18 91 -25 186 -66 186 -80 0
-26 -732 -12 -758 13 -7 8 2 17 20 20 7 1 24 8 38 16 22 11 24 11 15 -1 -5 -8
-3 -7 6 2 12 13 19 15 28 6 8 -8 11 -6 11 9 0 14 3 15 9 6 6 -10 10 -10 19 1
7 8 26 13 42 12 17 -1 33 2 36 7 9 14 14 9 8 -7z m826 -179 c0 -3 -4 -8 -10
-11 -5 -3 -10 -1 -10 4 0 6 5 11 10 11 6 0 10 -2 10 -4z m-7687 -13 c-7 -2
-19 -2 -25 0 -7 3 -2 5 12 5 14 0 19 -2 13 -5z m6927 -13 c0 -5 -2 -10 -4 -10
-3 0 -8 5 -11 10 -3 6 -1 10 4 10 6 0 11 -4 11 -10z m-6960 -30 c0 -3 -6 -7
-14 -7 -8 0 -14 8 -13 18 1 14 4 15 14 7 7 -6 13 -14 13 -18z m1290 -10 c0 -5
-4 -10 -10 -10 -5 0 -10 5 -10 10 0 6 5 10 10 10 6 0 10 -4 10 -10z m1060 6
c0 -2 -7 -6 -15 -10 -8 -3 -15 -1 -15 4 0 6 7 10 15 10 8 0 15 -2 15 -4z
m1510 -16 c0 -5 -4 -10 -10 -10 -5 0 -10 5 -10 10 0 6 5 10 10 10 6 0 10 -4
10 -10z m-100 -150 c0 -5 -4 -10 -10 -10 -5 0 -10 5 -10 10 0 6 5 10 10 10 6
0 10 -4 10 -10z m1948 -415 c-3 -3 -9 2 -12 12 -6 14 -5 15 5 6 7 -7 10 -15 7
-18z m2029 -1 c-3 -3 -12 -4 -19 -1 -8 3 -5 6 6 6 11 1 17 -2 13 -5z m-7090
-390 c-3 -3 -12 -4 -19 -1 -8 3 -5 6 6 6 11 1 17 -2 13 -5z m-44 -11 c-7 -2
-19 -2 -25 0 -7 3 -2 5 12 5 14 0 19 -2 13 -5z m-50 -10 c-7 -2 -19 -2 -25 0
-7 3 -2 5 12 5 14 0 19 -2 13 -5z"/>
<path d="M6170 7048 c-1 -17 45 -124 59 -138 13 -13 14 -13 7 5 -4 11 -9 26
-10 33 -1 8 -7 17 -12 20 -5 4 -10 13 -12 21 -4 18 -31 69 -32 59z"/>
<path d="M2578 6303 c23 -2 59 -2 80 0 20 2 1 4 -43 4 -44 0 -61 -2 -37 -4z"/>
<path d="M4608 6723 c7 -3 16 -2 19 1 4 3 -2 6 -13 5 -11 0 -14 -3 -6 -6z"/>
<path d="M2070 5601 c0 -8 -7 -11 -17 -6 -15 5 -16 4 -5 -6 9 -10 15 -10 24
-1 6 6 9 15 5 19 -4 3 -7 1 -7 -6z"/>
<path d="M4480 5590 c-13 -8 -12 -10 3 -10 9 0 17 5 17 10 0 12 -1 12 -20 0z"/>
<path d="M2578 5353 c45 -2 119 -2 165 0 45 1 8 3 -83 3 -91 0 -128 -2 -82 -3z"/>
<path d="M6355 4989 c-4 -6 -4 -13 -1 -16 3 -4 6 -1 6 6 0 7 5 9 10 6 6 -3 10
-1 10 4 0 14 -17 14 -25 0z"/>
<path d="M6530 4969 c62 -13 301 -26 306 -17 3 5 -34 8 -83 9 -48 0 -96 2
-106 4 -9 2 -50 6 -90 9 -63 4 -66 4 -27 -5z"/>
<path d="M4170 4960 c8 -5 24 -10 34 -10 26 0 18 6 -19 14 -22 5 -26 4 -15 -4z"/>
<path d="M7028 4953 c12 -2 32 -2 45 0 12 2 2 4 -23 4 -25 0 -35 -2 -22 -4z"/>
<path d="M1806 4940 c6 -6 30 -12 54 -14 25 -2 36 -2 25 1 -11 2 -35 8 -54 13
-22 6 -31 6 -25 0z"/>
<path d="M4275 4939 c52 -7 452 -12 444 -5 -2 2 -114 6 -249 8 -135 2 -222 1
-195 -3z"/>
<path d="M4773 4943 c9 -2 23 -2 30 0 6 3 -1 5 -18 5 -16 0 -22 -2 -12 -5z"/>
<path d="M6883 4943 c9 -2 23 -2 30 0 6 3 -1 5 -18 5 -16 0 -22 -2 -12 -5z"/>
<path d="M1940 4918 c0 -5 75 -7 168 -6 169 2 149 6 -56 10 -61 2 -112 0 -112
-4z"/>
<path d="M2338 4923 c12 -2 30 -2 40 0 9 3 -1 5 -23 4 -22 0 -30 -2 -17 -4z"/>
<path d="M3947 4803 c-4 -6 -5 -17 -2 -25 9 -24 133 -100 185 -114 202 -52
695 -41 870 21 37 13 134 75 127 81 -1 2 -20 -1 -42 -6 -120 -29 -719 -45
-763 -21 -10 6 -24 6 -32 1 -8 -5 -18 -6 -22 -4 -5 3 -35 6 -68 6 -32 1 -57 4
-55 8 2 3 -13 7 -33 7 -78 3 -92 6 -85 16 4 7 0 8 -12 4 -9 -4 -24 -2 -31 4
-8 6 -14 8 -15 3 0 -5 -4 0 -8 10 -5 12 -10 16 -14 9z"/>
<path d="M8835 5861 c-3 -2 -5 -8 -5 -12 0 -8 38 0 44 10 5 7 -32 9 -39 2z"/>
<path d="M10155 6741 c-7 -12 2 -31 15 -31 9 0 8 26 -2 35 -3 4 -9 2 -13 -4z"/>
<path d="M830 6610 c0 -5 5 -10 11 -10 5 0 7 5 4 10 -3 6 -8 10 -11 10 -2 0
-4 -4 -4 -10z"/>
<path d="M715 6560 c-18 -7 -19 -8 -2 -15 19 -8 67 1 67 13 0 11 -41 12 -65 2z"/>
<path d="M10130 6546 c0 -8 48 -12 66 -5 13 5 7 8 -23 8 -24 1 -43 -1 -43 -3z"/>
<path d="M10000 6404 c0 -8 5 -12 10 -9 6 4 8 11 5 16 -9 14 -15 11 -15 -7z"/>
<path d="M566 6133 c-3 -4 -6 -11 -6 -17 0 -6 5 -4 10 4 6 9 10 10 10 3 0 -6
-4 -14 -9 -17 -5 -3 -7 -15 -4 -27 4 -16 8 -17 14 -7 7 10 9 9 9 -5 0 -10 5
-15 10 -12 14 9 12 -7 -4 -27 -7 -10 -17 -14 -21 -10 -4 4 -5 -8 -2 -26 4 -18
3 -31 -1 -28 -4 2 -7 -9 -8 -24 -1 -20 5 -30 17 -33 11 -3 19 -11 19 -18 0
-10 -3 -10 -12 -1 -20 20 -29 13 -11 -8 18 -20 39 -28 28 -10 -3 6 -1 10 5 10
6 0 8 5 3 13 -14 22 -14 57 0 57 9 0 13 -13 12 -44 0 -25 3 -42 7 -40 8 5 12
-9 9 -36 -2 -12 0 -13 7 -1 6 7 15 10 21 7 6 -4 11 0 11 9 0 9 -5 13 -11 9 -8
-4 -8 -1 0 14 20 37 -2 155 -32 174 -9 6 -9 13 1 29 12 18 12 23 0 31 -34 23
-66 37 -72 31z m61 -169 c-3 -3 -12 -4 -19 -1 -8 3 -5 6 6 6 11 1 17 -2 13 -5z
m27 -69 c3 -8 1 -15 -4 -15 -6 0 -10 7 -10 15 0 8 2 15 4 15 2 0 6 -7 10 -15z"/>
<path d="M10047 6119 c7 -7 15 -10 18 -7 3 3 -2 9 -12 12 -14 6 -15 5 -6 -5z"/>
<path d="M10160 6112 c0 -19 -3 -21 -19 -13 -14 8 -20 7 -24 -4 -4 -9 -1 -13
11 -9 9 2 2 -3 -16 -11 -18 -9 -31 -19 -28 -24 3 -4 -1 -8 -9 -8 -8 0 -15 4
-15 9 0 4 -9 0 -20 -9 -11 -10 -20 -23 -20 -30 0 -7 -8 -13 -17 -14 -15 0 -15
-2 2 -8 11 -5 25 -6 30 -3 6 3 7 2 3 -2 -3 -4 -10 -8 -15 -8 -4 1 -17 -7 -27
-16 -11 -9 -16 -12 -13 -6 4 7 -1 18 -11 25 -16 13 -16 13 -2 -5 14 -18 13
-19 -2 -13 -10 3 -18 2 -18 -3 0 -6 7 -10 15 -10 8 0 15 -7 15 -16 0 -14 1
-14 16 0 8 9 19 14 24 11 10 -6 7 -45 -5 -65 -8 -13 -6 -13 8 -1 16 12 22 8
18 -13 -1 -5 6 -6 15 -2 13 5 15 1 11 -20 -3 -18 -1 -22 6 -15 18 18 28 12 16
-10 -9 -17 -8 -20 3 -17 7 2 21 21 31 41 10 20 23 37 28 37 5 0 7 11 3 25 -5
19 -2 25 9 25 14 0 14 -7 -2 -65 -10 -36 -17 -65 -16 -65 2 0 13 20 25 45 12
25 26 45 31 45 6 0 7 -4 4 -10 -9 -14 8 -13 23 2 8 8 12 45 12 103 l-1 90 -19
-35 c-15 -28 -18 -30 -17 -12 1 12 4 22 7 22 4 0 7 19 8 43 1 23 -2 38 -6 32
-4 -5 -14 -10 -22 -10 -8 0 -18 5 -22 10 -4 6 -8 0 -8 -13z m-110 -86 c0 -3
-4 -8 -10 -11 -5 -3 -10 -1 -10 4 0 6 5 11 10 11 6 0 10 -2 10 -4z m30 -6 c0
-5 -5 -10 -11 -10 -5 0 -7 5 -4 10 3 6 8 10 11 10 2 0 4 -4 4 -10z m109 -62
c-7 -13 -14 -18 -16 -11 -3 7 2 19 9 27 18 20 22 12 7 -16z m24 -35 c-3 -7 1
-13 8 -13 7 0 10 -2 7 -5 -9 -9 -38 6 -38 19 0 7 6 13 14 13 8 0 12 -6 9 -14z"/>
<path d="M9976 6101 c-4 -5 3 -7 14 -4 23 6 26 13 6 13 -8 0 -17 -4 -20 -9z"/>
<path d="M734 5986 c9 -21 16 -40 16 -43 0 -2 5 -1 10 2 15 9 12 17 -16 50
l-25 30 15 -39z"/>
<path d="M9950 5930 c0 -5 5 -10 11 -10 5 0 7 5 4 10 -3 6 -8 10 -11 10 -2 0
-4 -4 -4 -10z"/>
<path d="M9910 5919 c0 -5 5 -7 10 -4 6 3 10 8 10 11 0 2 -4 4 -10 4 -5 0 -10
-5 -10 -11z"/>
<path d="M10220 5850 c0 -5 5 -10 10 -10 6 0 10 5 10 10 0 6 -4 10 -10 10 -5
0 -10 -4 -10 -10z"/>
<path d="M587 5844 c-8 -8 1 -24 14 -24 5 0 9 7 9 15 0 15 -12 20 -23 9z"/>
<path d="M8053 5658 c-22 -29 -24 -41 -3 -20 12 13 20 25 17 28 -2 2 -9 -1
-14 -8z"/>
<path d="M8965 5630 c-3 -5 -1 -10 4 -10 6 0 11 5 11 10 0 6 -2 10 -4 10 -3 0
-8 -4 -11 -10z"/>
<path d="M8040 5599 c0 -5 5 -7 10 -4 6 3 10 8 10 11 0 2 -4 4 -10 4 -5 0 -10
-5 -10 -11z"/>
<path d="M8015 5590 c-3 -5 -1 -10 4 -10 6 0 11 5 11 10 0 6 -2 10 -4 10 -3 0
-8 -4 -11 -10z"/>
<path d="M8880 5535 c0 -8 2 -15 4 -15 2 0 6 7 10 15 3 8 1 15 -4 15 -6 0 -10
-7 -10 -15z"/>
<path d="M10150 5470 c0 -5 5 -10 11 -10 5 0 7 5 4 10 -3 6 -8 10 -11 10 -2 0
-4 -4 -4 -10z"/>
<path d="M8129 5387 c4 -4 93 -6 197 -5 l189 3 -197 5 c-108 3 -194 2 -189 -3z"/>
<path d="M10165 5384 c-8 -9 -15 -20 -15 -26 0 -6 -6 -19 -14 -27 -13 -15 -9
-16 45 -19 l60 -3 -3 42 c-3 37 -6 42 -30 45 -16 1 -35 -4 -43 -12z"/>
<path d="M613 5343 c-18 -2 -33 -10 -33 -17 0 -8 12 -11 37 -8 l36 5 -22 -24
-22 -24 23 -6 c13 -3 34 -4 48 -2 14 2 39 5 55 7 17 2 32 4 34 5 2 0 -4 10
-14 21 -10 11 -14 20 -9 20 5 0 2 4 -6 9 -20 12 -88 19 -127 14z"/>
<path d="M9550 5221 c0 -5 5 -13 10 -16 6 -3 10 -2 10 4 0 5 -4 13 -10 16 -5
3 -10 2 -10 -4z"/>
<path d="M1258 5213 c6 -2 18 -2 25 0 6 3 1 5 -13 5 -14 0 -19 -2 -12 -5z"/>
<path d="M1193 5203 c9 -2 23 -2 30 0 6 3 -1 5 -18 5 -16 0 -22 -2 -12 -5z"/>
<path d="M1088 5193 c12 -2 32 -2 45 0 12 2 2 4 -23 4 -25 0 -35 -2 -22 -4z"/>
<path d="M426 5179 c37 -8 456 -8 554 0 41 3 -73 6 -254 6 -181 0 -316 -3
-300 -6z"/>
<path d="M8670 5121 c0 -5 -3 -16 -6 -25 -5 -12 0 -16 17 -16 19 0 21 2 9 10
-13 8 -13 10 2 10 9 0 19 -6 21 -12 4 -10 6 -10 6 0 1 16 -23 42 -38 42 -6 0
-11 -4 -11 -9z"/>
<path d="M8610 5075 c-15 -18 1 -20 19 -2 10 10 11 8 6 -8 -6 -16 -5 -17 4 -5
10 13 15 8 12 -12 0 -5 4 -8 9 -8 6 0 10 4 10 9 0 5 8 12 18 14 10 3 6 5 -10
6 -16 0 -28 6 -28 11 0 15 -26 12 -40 -5z"/>
<path d="M519 4983 c-13 -16 -12 -17 4 -4 9 7 17 15 17 17 0 8 -8 3 -21 -13z"/>
<path d="M9368 4973 c6 -2 18 -2 25 0 6 3 1 5 -13 5 -14 0 -19 -2 -12 -5z"/>
<path d="M9665 4907 c11 -18 42 -32 123 -55 59 -18 179 -53 267 -78 88 -26
166 -49 173 -52 9 -3 12 21 12 102 l0 106 -295 0 -295 0 15 -23z"/>
<path d="M538 4779 c-51 -30 -354 -79 -485 -79 l-53 0 0 -45 0 -46 33 6 c17 3
88 14 156 25 187 30 265 53 298 86 7 6 28 22 48 34 19 12 35 24 35 26 0 7 -14
4 -32 -7z"/>
<path d="M9607 4544 c-1 -1 -285 -4 -630 -7 -346 -3 -630 -7 -633 -9 -2 -3
270 -150 605 -327 l610 -321 338 2 338 3 3 334 2 333 -316 -3 c-173 -2 -316
-5 -317 -5z"/>
<path d="M23 4452 c-22 -3 -23 -7 -23 -112 l0 -109 63 28 c35 16 74 32 88 36
25 8 73 27 124 50 17 8 53 23 80 35 28 12 59 25 70 30 11 4 40 18 65 29 l45
21 -245 -2 c-135 -2 -255 -4 -267 -6z"/>
</g>
</svg>
